HIERARCHY
ROOT Hips
{
	OFFSET 0.000000 97.167313 0.000000
	CHANNELS 6 Xposition Yposition Zposition Xrotation Yrotation Zrotation
	JOINT Spine
	{
		OFFSET 0.000000 13.784798 0.064400
		CHANNELS 3 Xrotation Yrotation Zrotation
		JOINT Spine1
		{
			OFFSET 0.000000 12.037903 0.404700
			CHANNELS 3 Xrotation Yrotation Zrotation
			JOINT Spine2
			{
				OFFSET 0.000000 17.795601 0.420200
				CHANNELS 3 Xrotation Yrotation Zrotation
				JOINT Neck
				{
					OFFSET 0.000000 39.131302 11.954600
					CHANNELS 3 Xrotation Yrotation Zrotation
					JOINT Head
					{
						OFFSET 0.000000 14.456192 15.627699
						CHANNELS 3 Xrotation Yrotation Zrotation
						JOINT HeadTop_End
						{
							OFFSET 0.000000 15.703506 7.603401
							CHANNELS 3 Xrotation Yrotation Zrotation
							End Site
							{
								OFFSET 0.000000 17.447403 0.000000
							}
						}
					}
				}
				JOINT LeftShoulder
				{
					OFFSET 17.399500 24.608795 1.168800
					CHANNELS 3 Xrotation Yrotation Zrotation
					JOINT LeftArm
					{
						OFFSET 18.980635 5.765305 1.818600
						CHANNELS 3 Xrotation Yrotation Zrotation
						JOINT LeftForeArm
						{
							OFFSET 49.290169 0.000000 0.000000
							CHANNELS 3 Xrotation Yrotation Zrotation
							JOINT LeftHand
							{
								OFFSET 31.562012 0.000000 0.000000
								CHANNELS 3 Xrotation Yrotation Zrotation
								JOINT LeftHandThumb1
								{
									OFFSET 6.133995 -4.388519 7.076070
									CHANNELS 3 Xrotation Yrotation Zrotation
									JOINT LeftHandThumb2
									{
										OFFSET 6.037666 -3.485840 3.485847
										CHANNELS 3 Xrotation Yrotation Zrotation
										JOINT LeftHandThumb3
										{
											OFFSET 6.496506 -3.750763 3.750761
											CHANNELS 3 Xrotation Yrotation Zrotation
											JOINT LeftHandThumb4
											{
												OFFSET 5.616882 -3.242905 3.242910
												CHANNELS 3 Xrotation Yrotation Zrotation
												End Site
												{
													OFFSET -1.254608 7.132141 0.375429
												}
											}
										}
									}
								}
								JOINT LeftHandPinky1
								{
									OFFSET 18.920792 -0.453171 -11.426712
									CHANNELS 3 Xrotation Yrotation Zrotation
									JOINT LeftHandPinky2
									{
										OFFSET 4.919586 0.000000 0.000000
										CHANNELS 3 Xrotation Yrotation Zrotation
										JOINT LeftHandPinky3
										{
											OFFSET 5.233047 0.000000 0.000000
											CHANNELS 3 Xrotation Yrotation Zrotation
											JOINT LeftHandPinky4
											{
												OFFSET 5.571716 0.000000 0.000000
												CHANNELS 3 Xrotation Yrotation Zrotation
												End Site
												{
													OFFSET -3.459808 4.342407 -0.466164
												}
											}
										}
									}
								}
								JOINT LeftHandRing1
								{
									OFFSET 22.726120 -0.094986 -6.500475
									CHANNELS 3 Xrotation Yrotation Zrotation
									JOINT LeftHandRing2
									{
										OFFSET 6.408615 0.000000 0.000000
										CHANNELS 3 Xrotation Yrotation Zrotation
										JOINT LeftHandRing3
										{
											OFFSET 6.150223 0.000000 0.000000
											CHANNELS 3 Xrotation Yrotation Zrotation
											JOINT LeftHandRing4
											{
												OFFSET 6.145386 0.000000 0.000000
												CHANNELS 3 Xrotation Yrotation Zrotation
												End Site
												{
													OFFSET -3.671402 4.923981 -0.202372
												}
											}
										}
									}
								}
								JOINT LeftHandMiddle1
								{
									OFFSET 23.373947 0.000000 0.000001
									CHANNELS 3 Xrotation Yrotation Zrotation
									JOINT LeftHandMiddle2
									{
										OFFSET 6.996567 0.000000 0.000000
										CHANNELS 3 Xrotation Yrotation Zrotation
										JOINT LeftHandMiddle3
										{
											OFFSET 7.015945 0.000000 0.000000
											CHANNELS 3 Xrotation Yrotation Zrotation
											JOINT LeftHandMiddle4
											{
												OFFSET 7.721573 0.000000 0.000000
												CHANNELS 3 Xrotation Yrotation Zrotation
												End Site
												{
													OFFSET -4.651108 6.158463 0.251582
												}
											}
										}
									}
								}
								JOINT LeftHandIndex1
								{
									OFFSET 21.310577 -0.490082 6.209344
									CHANNELS 3 Xrotation Yrotation Zrotation
									JOINT LeftHandIndex2
									{
										OFFSET 7.536453 0.000000 0.000000
										CHANNELS 3 Xrotation Yrotation Zrotation
										JOINT LeftHandIndex3
										{
											OFFSET 7.512344 0.000000 0.000000
											CHANNELS 3 Xrotation Yrotation Zrotation
											JOINT LeftHandIndex4
											{
												OFFSET 10.212402 0.000000 0.000001
												CHANNELS 3 Xrotation Yrotation Zrotation
												End Site
												{
													OFFSET -5.180801 8.690506 1.388433
												}
											}
										}
									}
								}
							}
						}
					}
				}
				JOINT RightShoulder
				{
					OFFSET -17.399500 24.608795 1.168800
					CHANNELS 3 Xrotation Yrotation Zrotation
					JOINT RightArm
					{
						OFFSET -18.980635 5.765305 1.818600
						CHANNELS 3 Xrotation Yrotation Zrotation
						JOINT RightForeArm
						{
							OFFSET -49.290169 0.000000 0.000000
							CHANNELS 3 Xrotation Yrotation Zrotation
							JOINT RightHand
							{
								OFFSET -31.562012 0.000000 0.000000
								CHANNELS 3 Xrotation Yrotation Zrotation
								JOINT RightHandThumb1
								{
									OFFSET -6.133995 -4.388519 7.076070
									CHANNELS 3 Xrotation Yrotation Zrotation
									JOINT RightHandThumb2
									{
										OFFSET -6.037666 -3.485840 3.485847
										CHANNELS 3 Xrotation Yrotation Zrotation
										JOINT RightHandThumb3
										{
											OFFSET -6.496506 -3.750763 3.750761
											CHANNELS 3 Xrotation Yrotation Zrotation
											JOINT RightHandThumb4
											{
												OFFSET -5.616882 -3.242905 3.242910
												CHANNELS 3 Xrotation Yrotation Zrotation
												End Site
												{
													OFFSET 1.254608 7.132141 0.375429
												}
											}
										}
									}
								}
								JOINT RightHandIndex1
								{
									OFFSET -21.310577 -0.490082 6.209344
									CHANNELS 3 Xrotation Yrotation Zrotation
									JOINT RightHandIndex2
									{
										OFFSET -7.536453 0.000000 0.000000
										CHANNELS 3 Xrotation Yrotation Zrotation
										JOINT RightHandIndex3
										{
											OFFSET -7.512344 0.000000 0.000000
											CHANNELS 3 Xrotation Yrotation Zrotation
											JOINT RightHandIndex4
											{
												OFFSET -10.212402 0.000000 0.000001
												CHANNELS 3 Xrotation Yrotation Zrotation
												End Site
												{
													OFFSET 5.180801 8.690506 1.388433
												}
											}
										}
									}
								}
								JOINT RightHandMiddle1
								{
									OFFSET -23.373947 0.000000 0.000001
									CHANNELS 3 Xrotation Yrotation Zrotation
									JOINT RightHandMiddle2
									{
										OFFSET -6.996567 0.000000 0.000000
										CHANNELS 3 Xrotation Yrotation Zrotation
										JOINT RightHandMiddle3
										{
											OFFSET -7.015945 0.000000 0.000000
											CHANNELS 3 Xrotation Yrotation Zrotation
											JOINT RightHandMiddle4
											{
												OFFSET -7.721573 0.000000 0.000000
												CHANNELS 3 Xrotation Yrotation Zrotation
												End Site
												{
													OFFSET 4.651108 6.158463 0.251582
												}
											}
										}
									}
								}
								JOINT RightHandRing1
								{
									OFFSET -22.726120 -0.094986 -6.500475
									CHANNELS 3 Xrotation Yrotation Zrotation
									JOINT RightHandRing2
									{
										OFFSET -6.408615 0.000000 0.000000
										CHANNELS 3 Xrotation Yrotation Zrotation
										JOINT RightHandRing3
										{
											OFFSET -6.150223 0.000000 0.000000
											CHANNELS 3 Xrotation Yrotation Zrotation
											JOINT RightHandRing4
											{
												OFFSET -6.145386 0.000000 0.000000
												CHANNELS 3 Xrotation Yrotation Zrotation
												End Site
												{
													OFFSET 3.671402 4.923981 -0.202372
												}
											}
										}
									}
								}
								JOINT RightHandPinky1
								{
									OFFSET -18.920792 -0.453171 -11.426712
									CHANNELS 3 Xrotation Yrotation Zrotation
									JOINT RightHandPinky2
									{
										OFFSET -4.919586 0.000000 0.000000
										CHANNELS 3 Xrotation Yrotation Zrotation
										JOINT RightHandPinky3
										{
											OFFSET -5.233047 0.000000 0.000000
											CHANNELS 3 Xrotation Yrotation Zrotation
											JOINT RightHandPinky4
											{
												OFFSET -5.571716 0.000000 0.000000
												CHANNELS 3 Xrotation Yrotation Zrotation
												End Site
												{
													OFFSET 3.459808 4.342407 -0.466164
												}
											}
										}
									}
								}
							}
						}
					}
				}
			}
		}
	}
	JOINT LeftUpLeg
	{
		OFFSET 19.899099 -7.885101 -3.429500
		CHANNELS 3 Xrotation Yrotation Zrotation
		JOINT LeftLeg
		{
			OFFSET 1.745560 -36.997807 10.304700
			CHANNELS 3 Xrotation Yrotation Zrotation
			JOINT LeftFoot
			{
				OFFSET -1.745558 -29.803308 -13.615400
				CHANNELS 3 Xrotation Yrotation Zrotation
				JOINT LeftToeBase
				{
					OFFSET 1.181900 -18.539904 15.226099
					CHANNELS 3 Xrotation Yrotation Zrotation
					JOINT LeftToe_End
					{
						OFFSET -0.863701 1.402801 16.534700
						CHANNELS 3 Xrotation Yrotation Zrotation
						End Site
						{
							OFFSET 0.000000 16.616566 0.000000
						}
					}
				}
			}
		}
	}
	JOINT RightUpLeg
	{
		OFFSET -19.899099 -7.885101 -3.429500
		CHANNELS 3 Xrotation Yrotation Zrotation
		JOINT RightLeg
		{
			OFFSET -1.745560 -36.997807 10.304700
			CHANNELS 3 Xrotation Yrotation Zrotation
			JOINT RightFoot
			{
				OFFSET 1.745558 -29.803308 -13.615400
				CHANNELS 3 Xrotation Yrotation Zrotation
				JOINT RightToeBase
				{
					OFFSET -1.181900 -18.539904 15.226099
					CHANNELS 3 Xrotation Yrotation Zrotation
					JOINT RightToe_End
					{
						OFFSET 0.863701 1.402801 16.534700
						CHANNELS 3 Xrotation Yrotation Zrotation
						End Site
						{
							OFFSET 0.000000 16.616566 0.000000
						}
					}
				}
			}
		}
	}
}
MOTION
Frames: 4
Frame Time: 0.033333
0.741306 78.227692 161.351349 4.937684 -15.554639 -0.843188 3.482398 -2.472902 3.890431 4.813656 -3.674802 1.625841 4.715833 -3.819791 1.684449 13.248334 12.050233 -16.271655 -21.737716 7.676624 5.325233 0.000000 0.000000 0.000000 0.261315 -9.095045 0.358667 -55.627513 0.591939 -40.907734 11.396802 -65.456783 12.762159 -51.111784 12.819585 4.362621 17.551599 -5.699189 -12.932278 10.850517 26.127700 8.644789 20.926902 51.115882 0.218815 -0.000000 -0.000002 0.000001 11.968524 14.591507 -84.915692 0.877103 0.062319 -64.595551 1.141314 1.253123 -55.016317 0.000000 0.000002 0.000001 8.564788 2.154394 -75.138501 -0.207623 1.009285 -57.855070 0.443117 1.742165 -53.581284 -0.000000 -0.000001 0.000005 7.504745 1.174506 -63.778496 1.807877 1.475655 -64.567930 0.127414 -0.912525 -43.272575 0.000000 -0.000000 0.000004 13.973712 1.210709 -55.006191 0.370834 1.161697 -65.441900 1.983985 2.147994 -57.665122 -0.000000 -0.000000 -0.000001 5.069257 4.109150 5.782013 0.367755 -7.681331 63.224363 11.155420 16.302511 -3.864723 0.819005 4.693224 6.553534 15.788518 -2.734474 -17.205863 -2.198325 -31.113568 7.361191 -6.566812 -4.138097 2.407570 0.000001 -0.000001 -0.000001 2.371301 -3.662043 14.732172 -2.149604 -2.475941 24.917946 -1.904155 -4.825000 20.417894 -0.000001 -0.000001 0.000001 -1.983579 -5.712480 19.906421 0.284542 -5.109546 33.233006 -0.656762 -1.223250 22.370770 -0.000002 -0.000001 -0.000004 -3.237231 -8.558195 18.010538 4.034019 -4.065667 39.507751 2.109192 -3.163190 21.838654 0.000002 0.000001 -0.000005 -6.472808 -11.350475 29.505799 10.721186 -2.561013 41.067895 6.415057 -3.082234 21.555829 0.000001 -0.000001 0.000004 -12.689501 12.971997 10.022168 60.147329 1.718231 -6.676339 17.030368 2.036995 -5.118388 -58.911085 7.722313 -4.861120 0.000000 0.000002 -0.000000 -49.974831 15.166174 11.837634 48.015113 -7.322706 3.152416 -3.936776 -5.254717 1.386027 -1.196196 -0.105918 -0.119847 -0.000000 -0.000001 -0.000000 
0.440749 79.913414 167.081039 5.213201 -16.576978 -0.377473 3.537514 -2.035342 3.521416 4.829094 -3.196317 1.408434 4.749716 -3.334723 1.458779 13.391946 12.017073 -16.220736 -22.230594 7.481507 5.366416 0.000000 -0.000000 -0.000000 -0.050529 -9.058712 -0.009525 -55.238646 0.356249 -40.942107 11.449936 -65.589432 12.779929 -50.830459 12.531939 4.460842 17.551600 -5.699191 -12.932278 10.850512 26.127702 8.644787 20.926904 51.115886 0.218811 -0.000001 0.000002 0.000002 11.993501 14.605834 -84.915931 0.877102 0.062317 -64.595551 1.141316 1.253126 -55.016317 0.000001 0.000000 -0.000002 8.564789 2.154392 -75.138501 -0.207621 1.009286 -57.855070 0.443116 1.742166 -53.581280 -0.000000 0.000000 0.000005 7.504745 1.174504 -63.778503 1.807874 1.475654 -64.567930 0.127415 -0.912525 -43.272578 0.000000 -0.000000 0.000006 13.973712 1.210708 -55.006191 0.370835 1.161694 -65.441893 1.983990 2.147996 -57.665122 -0.000001 0.000001 -0.000001 4.822224 5.909191 6.321849 0.022547 -6.399049 62.126028 11.204294 16.867330 -3.599621 -1.157420 5.743669 5.702359 15.788530 -2.734475 -17.205832 -2.198325 -31.113571 7.361194 -6.566806 -4.138093 2.407573 -0.000001 0.000000 -0.000001 2.371998 -3.661019 12.605939 -2.152579 -2.475183 22.791484 -1.904218 -4.822072 18.291629 -0.000002 -0.000005 -0.000002 -1.983877 -5.711559 17.780053 0.283934 -5.107029 31.106597 -0.657136 -1.222352 20.244445 0.000000 -0.000000 -0.000004 -3.237344 -8.557296 15.884215 4.035334 -4.064874 37.381526 2.108852 -3.162291 19.712317 0.000001 -0.000000 -0.000003 -6.473305 -11.349624 27.379324 10.720550 -2.560293 38.941586 6.414722 -3.081316 19.429467 0.000000 0.000000 0.000000 -19.901983 12.009337 11.301841 61.887490 1.741609 -7.506651 11.586680 2.384476 -5.934365 -52.064736 3.478258 -1.584826 -0.000000 0.000001 0.000000 -44.212023 16.261179 11.166500 48.075168 -6.803320 2.659982 -9.145096 -5.370604 1.719070 -2.070813 -0.070280 -0.086909 0.000000 -0.000001 -0.000000 
0.058517 81.940689 172.843353 5.579588 -17.414086 0.435859 3.515234 -1.668693 2.912641 4.820062 -2.811880 1.144145 4.754379 -2.945895 1.190823 13.959799 11.900572 -16.125151 -23.114364 7.446545 5.238295 -0.000001 0.000000 0.000000 -0.014337 -9.157517 -0.067370 -55.199342 0.504681 -40.967939 11.552549 -65.862073 12.877506 -50.510834 12.423177 4.615239 17.551602 -5.699192 -12.932278 10.850514 26.127700 8.644786 20.926904 51.115882 0.218815 0.000001 0.000001 -0.000001 11.993899 14.629372 -84.920363 0.877103 0.062317 -64.595544 1.141314 1.253126 -55.016320 -0.000000 0.000004 0.000002 8.564789 2.154393 -75.138501 -0.207624 1.009285 -57.855076 0.443117 1.742167 -53.581280 -0.000000 -0.000001 -0.000000 7.504744 1.174505 -63.778503 1.807877 1.475654 -64.567930 0.127414 -0.912524 -43.272582 -0.000000 -0.000000 0.000002 13.973712 1.210707 -55.006187 0.370834 1.161696 -65.441900 1.983980 2.147993 -57.665122 0.000002 -0.000002 -0.000004 4.741175 7.170707 6.372047 -0.351332 -4.562792 61.550168 11.230229 17.520832 -3.598883 -0.941010 6.594552 5.974234 15.788525 -2.734473 -17.205858 -2.198324 -31.113564 7.361195 -6.566808 -4.138095 2.407574 -0.000003 -0.000002 -0.000001 2.371776 -3.660042 10.434850 -2.153974 -2.474343 20.620399 -1.904287 -4.819363 16.120631 -0.000001 -0.000003 0.000001 -1.984132 -5.710596 15.608953 0.283453 -5.106174 28.935509 -0.657495 -1.221434 18.073381 0.000000 0.000001 0.000001 -3.237608 -8.556342 13.713141 4.038546 -4.064029 35.210701 2.108561 -3.161361 17.541191 -0.000000 -0.000000 -0.000003 -6.473775 -11.348757 25.208145 10.719945 -2.559517 36.770480 6.414414 -3.080378 17.258408 0.000000 -0.000003 0.000004 -26.244257 10.952052 11.914119 61.224969 3.366328 -8.312240 3.765738 3.848741 -4.698184 -38.902777 1.429376 -1.295969 0.000000 0.000001 -0.000000 -37.403216 17.651388 9.397407 46.268688 -6.403470 2.548925 -13.545976 -5.284477 1.737439 -2.817856 -0.009744 -0.019849 0.000000 -0.000001 0.000000 
-0.232157 83.614189 178.324509 5.883892 -18.221452 1.354968 3.505046 -1.423874 2.343903 4.828633 -2.419292 0.835435 4.774625 -2.549347 0.869724 14.103453 11.900812 -15.969860 -23.529631 7.572412 4.974395 0.000000 -0.000000 -0.000000 -0.057401 -8.759492 -0.061005 -55.251272 0.325932 -41.455290 11.584330 -65.827280 13.005477 -50.191006 12.352922 4.610824 17.551597 -5.699190 -12.932282 10.850515 26.127697 8.644784 20.926899 51.115882 0.218810 0.000003 -0.000002 -0.000001 11.993895 14.629388 -84.920370 0.877104 0.062317 -64.595544 1.141313 1.253126 -55.016317 -0.000001 -0.000000 -0.000004 8.564788 2.154393 -75.138501 -0.207623 1.009284 -57.855070 0.443117 1.742166 -53.581284 -0.000001 0.000000 0.000003 7.504740 1.174506 -63.778496 1.807875 1.475655 -64.567923 0.127414 -0.912523 -43.272575 0.000001 -0.000001 0.000004 13.973710 1.210709 -55.006187 0.370831 1.161693 -65.441893 1.983987 2.147992 -57.665129 -0.000002 0.000001 0.000001 4.849266 7.760080 5.560462 -0.933116 -2.177030 61.845669 11.307360 18.943598 -3.989995 -0.463577 6.619692 5.830353 15.788529 -2.734474 -17.205863 -2.198324 -31.113571 7.361194 -6.566810 -4.138096 2.407579 0.000000 0.000003 0.000001 2.375737 -3.658738 8.487683 -2.153843 -2.473479 18.672959 -1.904522 -4.818533 14.173258 -0.000003 -0.000003 0.000001 -1.984327 -5.709737 13.661563 0.283033 -5.105392 26.988080 -0.661581 -1.220223 16.125897 -0.000000 0.000002 -0.000004 -3.237818 -8.555477 11.765709 4.042972 -4.063241 33.263656 2.104790 -3.160744 15.593631 -0.000000 0.000000 -0.000005 -6.474155 -11.347953 23.260703 10.719402 -2.558805 34.823006 6.414183 -3.079524 15.311008 -0.000000 -0.000001 -0.000001 -31.873122 10.221306 11.642232 56.667057 5.904974 -8.665465 1.626549 4.720507 0.117361 -28.561208 1.977337 -3.638723 -0.000000 0.000001 -0.000000 -30.568194 17.978238 6.968874 43.955648 -5.605879 2.117294 -17.220842 -4.794940 1.775387 -3.481237 0.005905 -0.000975 -0.000000 -0.000001 0.000000 
